<svg width="209" height="150" viewBox="0 0 209 150" fill="none" xmlns="http://www.w3.org/2000/svg">
<g clip-path="url(#clip0_219_17)">
<mask id="mask0_219_17" style="mask-type:luminance" maskUnits="userSpaceOnUse" x="0" y="0" width="209" height="150">
<path d="M209 0H0V150H209V0Z" fill="white"/>
</mask>
<g mask="url(#mask0_219_17)">
<path d="M33.1392 133.97C21.2246 125.528 14.0283 112.731 11.9952 105.787C9.96212 98.8436 -3.25285 64.1261 0.94601 47.7429C-0.255967 14.6656 35.0258 -12.5728 85.7373 5.99885C102.269 12.0529 110.042 21.0554 122.688 16.1656C147.187 6.69328 180.688 10.599 181.745 40.984C183.426 89.194 206.961 71.434 209 106.604C209.695 118.589 203.878 142.468 193.549 145.611C161.595 155.331 83.3513 145.246 82.4627 145.179C81.5741 145.112 45.0538 142.412 33.1392 133.97Z" fill="#7678FF" fill-opacity="0.1"/>
<path d="M79.3846 47.02C74.7973 36.1672 64.1625 22.2059 64.0391 18.8963C64.0374 18.8625 64.0366 18.8304 64.0366 18.7974C64.0096 17.5157 65.0561 16.6723 66.1327 16.6723C66.685 16.6723 67.2459 16.8944 67.6742 17.3934C77.1724 28.4659 79.3846 47.02 79.3846 47.02Z" fill="#E1E1F8"/>
<path d="M80.5396 52.3311C71.1048 40.394 53.075 26.6634 51.7865 22.5838C51.3031 21.0544 51.4964 20.0748 51.9276 19.4479C52.3399 18.8476 53.0131 18.5334 53.702 18.5334C54.1175 18.5334 54.5387 18.6481 54.909 18.8836C71.0756 29.1399 80.5396 52.3311 80.5396 52.3311Z" fill="#E1E1F8"/>
<path d="M57.6367 38.9493C57.6367 38.9493 57.0371 53.1786 54.3986 52.9036C51.7609 52.6282 56.2085 37.0954 56.2085 37.0954C56.2085 37.0954 44.9641 28.0579 39.8852 27.3843C39.8852 27.3843 44.6478 42.5225 42.1586 41.6057C39.6698 40.6893 33.9821 25.1667 33.9821 25.1667C33.9821 25.1667 21.5611 19.7437 17.6919 26.9589C13.8227 34.1733 16.2947 38.8054 18.1059 39.7332C19.917 40.6618 32.2924 43.3689 31.5999 44.8986C30.9073 46.4279 21.9796 47.0579 17.6677 44.5339C17.6677 44.5339 19.8555 58.3975 26.7343 59.3204C33.6131 60.2429 36.6635 56.5568 40.9043 57.2047C45.1443 57.8525 47.9285 59.6825 45.5847 60.3218C43.242 60.9604 36.3663 58.5664 32.3371 60.6479C28.3078 62.7286 25.1745 63.86 31.126 66.5954C37.0776 69.3318 48.4798 71.1368 51.8395 66.8472C51.9866 66.6597 52.1259 66.4818 52.2599 66.3104C52.0318 66.6761 51.8395 66.8472 51.8395 66.8472C52.8365 67.7879 53.8207 71.3997 54.4491 74.1418C54.5227 74.6007 54.6585 75.2436 54.8774 76.1243V76.125C54.9578 76.5186 55.021 76.8404 55.0637 77.0639C55.9864 83.0936 52.609 92.3504 52.609 92.3504L53.8609 93.0186C59.0475 84.1047 55.6878 75.0107 55.6878 75.0107C53.7745 67.9725 55.1998 62.5564 55.1998 62.5564C55.1998 62.5564 68.7802 58.6132 65.2926 48.1672C65.2926 48.1672 62.1085 41.51 57.6367 38.9493Z" fill="#E1E1F8"/>
<path d="M110.313 65.3926L109.026 65.1086C110.209 63.3465 111.205 62.3761 111.205 62.3761V62.3758C115.865 56.9576 116.886 51.5636 116.886 51.5636C116.886 51.5636 106.533 42.3397 114.02 34.5698C114.02 34.5698 119.644 30.0251 124.681 29.648C124.681 29.648 119.213 42.4908 121.663 43.3615C121.728 43.3851 121.795 43.3965 121.863 43.3965C124.252 43.3951 126.725 28.6111 126.725 28.6111C126.725 28.6111 135.693 26.4946 141.662 26.4946C143.086 26.4946 144.341 26.6148 145.259 26.9128C145.259 26.9128 134.665 38.2951 137.254 38.5354C137.282 38.5379 137.309 38.539 137.339 38.539C140.085 38.539 151.417 27.4446 151.417 27.4446C151.417 27.4446 164.692 27.8922 165.075 35.9097C165.457 43.9268 161.318 46.9808 159.323 47.0372C159.304 47.0379 159.284 47.0383 159.262 47.0383C158.425 47.0379 156.143 46.6268 153.658 46.2158C151.171 45.8043 148.48 45.3933 146.818 45.3933C145.837 45.3933 145.215 45.5368 145.209 45.9083C145.177 47.4797 152.137 51.4976 157.014 51.4972C157.242 51.4968 157.469 51.4879 157.688 51.4693C157.688 51.4693 151.166 60.979 145.094 60.979C144.536 60.979 143.981 60.8983 143.435 60.7222C136.959 58.6336 135.814 54.084 131.789 52.8661C130.212 52.389 128.755 52.1668 127.677 52.1668C126.003 52.1668 125.237 52.7015 126.334 53.6465C128.137 55.2015 135.231 55.9872 137.918 59.5304C140.554 63.0051 142.813 65.3072 136.845 65.3072C136.727 65.3072 136.607 65.3065 136.482 65.3047C130.064 65.2118 119.214 61.9933 118.05 56.7786C116.772 57.1901 114.379 59.9693 112.668 62.1297L112.665 62.1333C112.407 62.5072 112.015 63.0183 111.453 63.7026L111.452 63.704L111.45 63.7051C111.217 64.0158 111.027 64.2711 110.895 64.4508L110.887 64.4636L110.882 64.4686C110.684 64.7611 110.495 65.0701 110.313 65.3926ZM117.904 56.1265C117.951 56.5461 118.05 56.7786 118.05 56.7786C117.999 56.5511 117.951 56.3343 117.904 56.1265Z" fill="#E1E1F8"/>
<path d="M118.076 39.559L112.883 51.8129L102.664 75.9318C102.548 75.8847 102.433 75.8393 102.319 75.7947C99.3589 74.6358 96.1386 74.0007 92.7708 74.0007C90.2688 74.0007 87.8486 74.3507 85.5588 75.0047C84.4363 75.3257 83.3458 75.7186 82.2905 76.18L80.8194 73.3025L80.8162 73.2997V73.299L80.8151 73.2965L70.3573 52.8379L64.2966 40.984C72.9111 36.8297 82.5696 34.5019 92.7708 34.5019C101.714 34.5019 110.239 36.2915 118.009 39.5315H118.01C118.032 39.5408 118.054 39.5486 118.076 39.559Z" fill="#F9DDBF"/>
<path d="M71.3898 85.0383C71.2992 85.1668 71.2086 85.2961 71.1186 85.4261C68.2296 89.6447 66.5373 94.7493 66.5349 100.249V100.262H27.0769C27.0769 87.3397 30.7997 75.2879 37.2319 65.1226L48.7347 71.8293L71.3898 85.0383Z" fill="#88B9FF"/>
<path d="M82.2906 76.1797C82.1908 76.2236 82.0916 76.2661 81.9942 76.3115C81.9754 76.32 81.9565 76.3286 81.9377 76.3365C77.6983 78.2633 74.0629 81.2843 71.3899 85.0382L48.7348 71.8293L37.2319 65.1225C43.7945 54.7525 53.1749 46.3468 64.2964 40.9847L70.357 52.8379L80.8159 73.2965L80.8166 73.299V73.2997L80.8191 73.3022L82.2906 76.1797Z" fill="#AFCDFB"/>
<path d="M119.006 100.262V100.249C119.004 94.8368 117.364 89.8057 114.557 85.6282C114.482 85.515 114.405 85.4014 114.327 85.2893L136.97 72.0868L148.471 65.3804C154.804 75.4907 158.465 87.4493 158.465 100.262H119.006Z" fill="#EA642F"/>
<path d="M148.472 65.38L136.971 72.0864L114.327 85.2889C111.46 81.1611 107.439 77.8946 102.73 75.9596C102.709 75.9493 102.686 75.9407 102.664 75.9314L112.885 51.8121L118.077 39.5579C130.681 44.8279 141.293 53.9168 148.472 65.38Z" fill="#F99746"/>
<path d="M102.73 75.96C102.709 75.95 102.686 75.9414 102.663 75.9318C102.547 75.8846 102.433 75.8393 102.318 75.795C99.3582 74.6361 96.1386 74.0011 92.7704 74.0011C90.2684 74.0011 87.8486 74.3511 85.5578 75.005C84.4364 75.3257 83.3455 75.7186 82.2898 76.18C82.1907 76.2236 82.0915 76.2664 81.993 76.3118L70.3569 52.8379C77.1519 49.6121 84.7499 47.8079 92.7704 47.8079C99.8967 47.8079 106.691 49.2332 112.883 51.8129L102.73 75.96Z" fill="#FFEBD9"/>
<path d="M71.1186 85.4261C68.2296 89.6447 66.5373 94.7493 66.5348 100.249H40.3828C40.3828 89.9436 43.6053 79.9365 48.7346 71.8293L71.1186 85.4261Z" fill="#97C6FF"/>
<path d="M81.9943 76.3115C81.9755 76.32 81.9566 76.3286 81.9378 76.3365C77.6984 78.2629 74.063 81.2843 71.39 85.0382C71.2994 85.1668 71.2088 85.2961 71.1188 85.4261L48.7349 71.8293C53.9549 63.7418 61.6314 57.0454 70.3571 52.8379L81.9943 76.3115Z" fill="#BBD5F9"/>
<path d="M144.852 100.249H118.962C118.959 94.7765 117.336 89.6893 114.558 85.4654L136.963 72.1211C141.961 80.2743 144.852 89.9161 144.852 100.249Z" fill="#FC7A4C"/>
<path d="M114.558 85.6279C114.482 85.515 114.404 85.4011 114.327 85.2889C111.46 81.1611 107.439 77.895 102.731 75.9596L112.884 51.8125C122.808 55.9618 131.251 63.1089 136.97 72.0864C137.045 72.2011 114.558 85.6279 114.558 85.6279Z" fill="#F7A76B"/>
<path d="M109.795 100.262H75.7468C75.7468 96.2786 77.1128 92.6129 79.4029 89.7114C80.9413 87.7589 82.8969 86.1536 85.1369 85.0261C85.5801 84.8036 86.0362 84.5982 86.5007 84.4143C87.5639 83.9921 88.6789 83.6746 89.8337 83.4736C90.7877 83.3075 91.7691 83.2211 92.7714 83.2211C94.838 83.2211 96.8185 83.59 98.6519 84.2661C98.7916 84.3157 98.9284 84.3696 99.0663 84.4243C101.963 85.5789 104.468 87.5064 106.327 89.9536C108.503 92.8146 109.795 96.3882 109.795 100.262Z" fill="#AEC3FF"/>
<path d="M104.071 100.262H81.4702C81.4702 97.3247 82.5902 94.6493 84.4229 92.6386C85.2084 91.7779 86.1222 91.04 87.1363 90.4554C87.7633 90.0925 88.4301 89.7886 89.1268 89.5515C90.2191 89.1793 91.3853 88.9704 92.5984 88.9525C92.656 88.9507 92.7125 88.9507 92.7712 88.9507C94.0294 88.9507 95.2397 89.1561 96.3707 89.5368C96.525 89.589 96.6782 89.644 96.8289 89.7022C98.5805 90.3765 100.119 91.474 101.325 92.8697C103.036 94.8529 104.071 97.4361 104.071 100.262Z" fill="#88B9FF"/>
<path d="M93.4667 99.0286C92.9403 99.21 92.3559 99.245 91.7758 99.0971C91.6856 99.0729 91.5964 99.0464 91.51 99.015C91.4225 98.9839 91.3369 98.9489 91.2541 98.9104C90.0953 98.3704 89.404 97.1268 89.5735 95.8429C89.5764 95.8207 89.5806 95.7993 89.5881 95.7779L89.9489 94.6207L89.9482 94.6196L91.3664 90.0646L92.9726 84.9071L95.5432 76.6529L96.4414 73.7693V73.7657L96.4424 73.765V73.7632L101.378 57.91C101.435 57.7268 101.624 57.6214 101.809 57.6686L102.414 57.8225C102.597 57.8693 102.712 58.0511 102.676 58.2371L98.9817 77.7286L97.3325 86.4332L96.2637 92.0639L95.428 96.4771L95.3104 97.0986L95.2855 97.2293C95.2809 97.2525 95.2745 97.275 95.2659 97.2971C94.945 98.1314 94.2721 98.7521 93.4667 99.0286Z" fill="#2B478B"/>
<path d="M91.298 95.4539C91.566 94.7622 92.3441 94.4189 93.0347 94.6879C93.726 94.9557 94.0687 95.7339 93.8003 96.4261C93.5323 97.1179 92.7553 97.4611 92.064 97.1922C91.3726 96.9243 91.03 96.1464 91.298 95.4539Z" fill="#F9DDBF"/>
<path d="M163.583 131.713C163.583 131.713 164.09 137.164 163.471 137.469L155.557 137.453C155.557 137.453 155.557 136.538 156.829 136.335C158.099 136.132 160.332 135.386 160.711 133.728C161.089 132.068 163.583 131.713 163.583 131.713Z" fill="#FFB27D"/>
<path d="M164.606 117.651C164.316 125.59 163.73 133.102 163.73 133.102C163.73 133.102 163.354 133.504 162.167 133.84C161.311 134.081 160.711 133.728 160.711 133.728C160.711 133.728 160.159 129.283 159.987 128.231C159.806 127.116 152.329 104.772 153.297 96.5329C153.976 90.7497 157.122 86.9768 157.122 86.9768H163.295C163.295 86.9768 163.303 91.2522 163.826 96.9925C163.975 98.6193 164.165 100.365 164.408 102.163C164.876 105.632 164.822 111.759 164.606 117.651Z" fill="#FFB27D"/>
<path d="M164.606 117.651C163.236 114.194 159.433 104.556 158.989 102.89C158.446 100.854 157.142 99.6604 157.142 99.6604L163.827 96.9926C163.975 98.6193 164.165 100.365 164.409 102.163C164.876 105.632 164.822 111.759 164.606 117.651Z" fill="#F3A36C"/>
<path d="M162.138 57.1886C160.476 56.7736 159.406 57.5393 159.406 57.5393C154.753 58.0875 154.691 63.6865 155.186 65.4897C155.68 67.2929 156.353 69.1961 154.894 72.04C150.681 80.2557 162.981 77.6382 162.981 77.6382C161.785 72.1629 168.787 72.5936 168.631 73.2143C177.478 73.2279 165.918 58.1329 162.138 57.1886Z" fill="#163560"/>
<path d="M152.607 93.8857C152.607 93.8857 153.396 95.6886 153.426 96.1865C153.456 96.6847 153.219 97.4764 153.054 97.5532C152.889 97.6304 152.799 96.6057 152.724 96.6615C152.65 96.7172 152.92 98.345 152.647 98.5147C152.373 98.685 151.345 97.1529 151.196 96.434C151.046 95.714 151.198 94.5354 151.198 94.5354L152.607 93.8857Z" fill="#FFB27D"/>
<path d="M160.62 77.8918C160.62 77.8918 159.46 79.1868 158.421 81.3375C157.994 82.22 157.59 83.2468 157.291 84.3879C156.573 87.1561 153.75 92.5154 152.786 94.3061C152.582 94.6854 152.46 94.9043 152.46 94.9043L151.18 94.6604C151.18 94.6604 151.973 87.4632 152.525 85.4125C153.103 83.2704 153.281 76.6025 154.17 74.4143C155.32 71.5807 157.756 71.2104 157.756 71.2104L160.62 77.8918Z" fill="#FFB27D"/>
<path d="M158.421 81.3375C157.995 82.2196 157.59 83.2468 157.292 84.3879C156.572 87.1557 155.236 90.9971 152.786 94.3061C152.786 94.3061 153.189 89.8689 154.015 88.5082C154.842 87.1471 154.943 78.5507 154.943 78.5507L158.421 81.3375Z" fill="#F3A36C"/>
<path d="M175.506 131.166C175.506 131.166 176.915 132.453 176.639 133.367C176.364 134.281 175.093 134.891 174.921 136.009C174.751 137.126 174.063 137.736 173.445 137.736C172.826 137.736 170.497 137.736 170.497 137.736C170.497 137.736 170.04 136.949 171.141 136.712C172.24 136.475 172.654 135.162 172.585 133.943C172.517 132.724 172.688 131.098 172.688 131.098L175.024 130.556L175.506 131.166Z" fill="#FFB27D"/>
<path d="M166.789 86.7654C166.789 86.7654 171.759 89.0115 172.903 95.0154C174.153 101.557 171.103 108.86 171.793 111.94C172.485 115.02 175.025 120.948 175.025 130.556C175.025 130.556 174.76 131.108 173.946 131.401C173.685 131.495 172.966 131.75 172.626 131.828C172.626 131.828 172.307 130.607 171.867 129.676C169.875 125.473 164.141 116.249 163.86 113.931C163.662 112.292 161.936 101.441 158.168 95.0729C157.264 93.5443 158.723 87.4647 158.723 87.4647L166.789 86.7654Z" fill="#FFB27D"/>
<path d="M169.224 92.6054C167.595 88.9486 166.599 87.8993 166.788 86.7654C166.931 85.9204 166.357 71.0186 166.357 71.0186C166.164 70.9586 165.777 70.905 165.565 70.8575C164.897 70.7093 164.451 70.1907 164.114 69.5947C163.686 68.8343 163.228 67.3232 163.232 65.8854L161.659 65.9689L159.427 66.6972C159.427 66.6972 159.985 68.0736 159.988 69.1147C159.988 69.1232 159.988 69.1318 159.988 69.1404C159.992 70.0447 159.399 70.8425 158.532 71.0932C158.088 71.2214 157.704 71.3307 157.704 71.3307C157.704 71.3307 156.415 75.0114 156.169 78.7936C155.923 82.575 158.512 84.2175 156.15 91.7739C153.74 99.4925 170.123 94.625 169.224 92.6054Z" fill="#FFB27D"/>
<path d="M159.504 66.9929C159.504 66.9929 159.984 68.074 159.987 69.1147C161.955 68.8226 162.815 67.2411 163.239 66.2476L159.504 66.9929Z" fill="#E8945B"/>
<path d="M168.59 77.6111C168.59 77.6111 169.373 85.1515 169.995 87.0772C170.805 89.585 169.995 90.9125 169.995 90.9125L162.121 92.8561L155.21 91.8736C155.21 91.8736 154.845 90.2972 155.013 89.0115C155.186 87.6986 155.892 86.6554 155.907 84.6783C155.934 81.004 154.015 80.4518 154.663 77.3711C155.364 74.0375 157.702 71.3308 157.702 71.3308C157.702 71.3308 161.462 75.0158 166.357 71.0186L168.59 77.6111Z" fill="#FFB27D"/>
<path d="M159.547 68.5307C159.547 68.5307 164.083 67.5272 163.415 64.7097C162.747 61.8922 162.882 59.865 159.959 60.3864C157.034 60.9082 156.729 62.1164 156.723 63.1114C156.719 64.1061 158.35 68.7193 159.547 68.5307Z" fill="#FFB27D"/>
<path d="M157.885 60.8086C157.885 60.8086 159.91 63.8182 161.924 63.854C163.938 63.8893 164.64 63.1836 164.64 63.1836C164.64 63.1836 162.908 62.3736 162.124 60.4243C162.124 60.4243 158.443 59.0132 157.885 60.8086Z" fill="#163560"/>
<path d="M158.256 61.0039C158.256 61.0039 157.421 61.5661 157.203 62.3257C156.988 63.0686 156.881 64.0111 157.208 65.0572C157.208 65.0572 155.74 63.0336 156.485 61.5132C157.274 59.9007 158.256 61.0039 158.256 61.0039Z" fill="#163560"/>
<path d="M173.203 98.885C173.203 98.885 169.36 97.9511 165.249 98.5282C163.624 98.755 161.957 99.2179 160.47 100.067C160.47 100.067 156.038 99.1725 153.251 99.5443C153.251 99.5443 152.328 95.8525 154.834 90.5872C154.834 90.5872 160.208 90.9768 167.118 89.9907C168.168 89.8418 169.251 89.66 170.356 89.4411C170.356 89.4411 173.942 93.2311 173.203 98.885Z" fill="#7678FF"/>
<path d="M169.4 84.0686C168.63 84.2715 167.899 84.4515 167.206 84.6122C157.837 86.7786 155.229 85.3047 155.229 85.3047C155.229 85.3047 154.513 81.2751 154.942 78.6961C155.371 76.1176 157.755 71.2104 157.755 71.2104L158.675 71.0461C158.675 71.0461 158.005 73.8708 157.885 74.8276C157.709 76.2365 159.176 76.6208 161.15 76.2654C164.291 75.7008 165.067 70.6779 165.067 70.6779C165.814 70.6468 166.42 70.9097 166.42 70.9097C165.967 73.7083 166.474 76.2615 167.165 78.2204L167.166 78.2236C168.011 80.6111 169.13 82.1183 169.13 82.1183L169.4 84.0686Z" fill="#7678FF"/>
<path d="M173.203 98.885C173.203 98.885 169.36 97.9511 165.249 98.5282C168.572 94.9436 167.118 89.9907 167.118 89.9907C168.168 89.8418 169.251 89.66 170.356 89.4411C170.356 89.4411 173.942 93.2311 173.203 98.885Z" fill="#7678FF"/>
<path d="M159.889 87.6747C159.889 87.8597 159.786 88.0086 159.658 88.0086C159.529 88.0086 159.426 87.8597 159.426 87.6747C159.426 87.4897 159.529 87.34 159.658 87.34C159.786 87.34 159.889 87.4897 159.889 87.6747Z" fill="#E8945B"/>
<path d="M166.42 70.9097C166.42 70.9097 168.499 71.4611 169.259 72.75C170.018 74.04 174.426 80.7732 175.025 84.1404C175.624 87.5075 171.473 95.6736 171.473 95.6736L170.356 94.9043C170.356 94.9043 170.848 85.5304 170.356 84.57C169.78 83.4479 169.131 82.1179 169.131 82.1179C169.131 82.1179 166.638 76.4132 166.577 76.1336C165.893 73.065 166.42 70.9097 166.42 70.9097Z" fill="#FFB27D"/>
<path d="M170.385 94.3061C170.385 94.3061 169.657 94.515 169.258 94.7547C168.861 94.9932 167.943 95.9364 168.158 96.1032C168.373 96.2704 168.952 95.6736 169.258 95.6736C169.565 95.6736 167.847 97.2736 167.99 97.6079C168.133 97.9418 170.103 97.775 170.752 97.2254C171.401 96.6768 171.783 94.7547 171.783 94.7547L170.385 94.3061Z" fill="#FFB27D"/>
<path d="M169.399 84.0686C168.63 84.2715 167.898 84.4515 167.206 84.6122C166.144 82.589 167.293 78.6058 167.166 78.2236C168.01 80.6111 169.13 82.1183 169.13 82.1183L169.399 84.0686Z" fill="#7678FF"/>
<path d="M188.817 139.26H139.012V137.449H188.817V139.26Z" fill="#B0D0FF"/>
<path d="M151.409 110.299H138.236C137.826 110.299 137.455 110.054 137.293 109.675L135.981 106.578C135.895 106.378 136.042 106.155 136.26 106.155H150.063C150.462 106.155 150.822 106.394 150.979 106.761L152.06 109.313C152.258 109.781 151.916 110.299 151.409 110.299Z" fill="#B0D0FF"/>
<path d="M151.01 108.979H137.95L136.948 106.615H150.008L151.01 108.979Z" fill="white"/>
<path d="M144.593 137.736H143.305V109.577H144.593V137.736Z" fill="#B0D0FF"/>
<path d="M73.1882 128.12C76.025 128.12 77.7361 127.118 77.7361 124.862C77.7361 122.9 76.2756 121.689 72.9796 121.689H65.5526V128.12H73.1882ZM71.4771 116.343C74.315 116.343 76.1089 115.424 76.1089 113.168C76.1089 111.248 74.6068 110.161 71.8944 110.161H65.5526V116.343H71.4771ZM59.2947 104.523H72.8548C76.1917 104.523 78.8212 105.442 80.4893 107.113C81.8247 108.449 82.4926 110.078 82.4926 112.166C82.4926 115.465 80.7399 117.303 78.6535 118.473C82.0334 119.767 84.1198 121.731 84.1198 125.74C84.1198 131.085 79.7806 133.759 73.1882 133.759H59.2947V104.523Z" fill="#C1C2F4"/>
<path d="M89.4163 104.523H96.3428L104.02 116.885L111.697 104.523H118.623V133.759H112.239V114.672L104.02 127.16H103.853L95.7175 114.797V133.759H89.4163V104.523Z" fill="#C1C2F4"/>
<path d="M125.923 104.523H132.349V133.758H125.923V104.523Z" fill="#C1C2F4"/>
</g>
</g>
<defs>
<clipPath id="clip0_219_17">
<rect width="209" height="150" fill="white"/>
</clipPath>
</defs>
</svg>
